<?xml version="1.0" encoding="utf-8"?>
<!-- Generator: Adobe Illustrator 25.4.1, SVG Export Plug-In . SVG Version: 6.00 Build 0)  -->
<svg version="1.1" id="Capa_1" xmlns="http://www.w3.org/2000/svg" xmlns:xlink="http://www.w3.org/1999/xlink" x="0px" y="0px"
	 viewBox="0 0 1000 1000" style="enable-background:new 0 0 1000 1000;" xml:space="preserve">
<style type="text/css">
	.st0{fill:url(#SVGID_1_);}
	.st1{fill:url(#SVGID_00000173153372604646178660000017857020647693919154_);}
</style>
<g>
	<linearGradient id="SVGID_1_" gradientUnits="userSpaceOnUse" x1="663.8866" y1="83.3351" x2="436.5148" y2="884.4242">
		<stop  offset="0" style="stop-color:#E64EBD"/>
		<stop  offset="1" style="stop-color:#C851E5"/>
	</linearGradient>
	<path class="st0" d="M815.49,367.85c-6.97-8.66-14.64-16.6-22.72-24.07c-6.07-5.62-7.43-11.56-4.8-19.12
		c2.78-7.96,4.42-16.24,6.47-24.41c7.96-31.86-11.67-64.57-41.76-73.37c-9.86-2.89-19.73-5.71-29.67-8.13
		c-6.17-1.5-9.56-4.84-10.85-10.95c-1.83-8.76-4.59-17.29-6.93-25.9c-7.37-27.08-32.12-45.72-60.23-45.64
		c-11.25,0.04-22.13,2.95-32.26,6.87c-14.05,5.41-23.73,2.11-32.94-9.1c-11.73-14.28-25.76-25.44-45.66-25.67h-18.95
		c-1.58,1.39-3.52,0.65-5.29,0.86c-10.42,1.31-19.42,4.8-27.27,12.57c-7.05,6.97-14.76,13.42-21.65,20.64
		c-4.55,4.76-9.41,5.94-15.65,4.13c-8.59-2.48-17.21-4.84-25.9-6.93c-31.99-7.71-62.84,9.25-73.46,40.22
		c-3.6,10.47-5.71,21.31-8.91,31.88c-1.73,5.73-4.97,8.78-10.72,10.13c-10.99,2.59-22.03,5.24-32.6,9.25
		c-22.89,8.72-42.33,33.97-38.37,63.98c1.6,12.07,5.29,23.59,8.53,35.19c1.85,6.55,1.05,11.65-4,16.41
		c-6.53,6.11-12.89,12.4-18.95,18.97c-22.15,23.97-23.88,55.2-4.59,81.33c6.76,9.16,15.37,16.59,23.46,24.45
		c5.62,5.43,7.18,11.01,4.97,18.41c-2.34,7.81-4.32,15.73-6.42,23.59c-9.52,35.59,13.39,68.86,45.53,76.57
		c8.44,2.02,16.85,4.17,25.14,6.7c2.8,0.84,5.58,1.62,7.67,3.81c5.2,5.5,8.44,25.21,5.16,32.18c-10.19,21.63-20.09,43.4-30.24,65.05
		c-19.5,41.66-38.94,83.33-58.36,125.03c-5.71,12.28-3.58,25.57,5.31,34.2c9.2,8.95,21.82,10.7,34.24,4.65
		c17.04-8.28,33.29-17.98,50.14-26.6c8.7-4.46,9.96-3.9,12.21,5.64c4.23,17.92,8.4,35.82,12.68,53.72
		c2.93,12.28,8.8,21.25,22.62,22.32h12.61c11.75-1.1,18.47-8,23.08-18.47c11.22-25.48,23.48-50.48,35.15-75.75
		c16.07-34.81,32.66-69.39,48.42-104.35c2.61-5.83,6.42-8.66,12.89-7.79c2.06,0.27,4.21,0.29,6.3,0.04
		c7.39-0.91,11.69,2.46,14.57,9.16c7.5,17.35,15.98,34.26,23.88,51.45c19.5,42.5,39.82,84.6,58.95,127.24
		c4.68,10.42,11.33,17.4,23.08,18.47h12.64c13.82-1.07,19.69-10.07,22.6-22.34c4.28-17.9,8.47-35.82,12.68-53.74
		c2.25-9.54,3.45-10,12.28-5.6c17.16,8.57,33.59,18.57,50.88,26.96c11.84,5.73,24.43,3.75,33.53-5.08
		c8.36-8.15,10.85-21.42,5.81-32.81c-2.67-6-5.33-12.02-8.13-17.96c-25.63-54.21-50.5-108.75-76.21-162.92
		c-5.16-10.89-5.2-20.32-2.57-31.65c2.91-12.55,9.75-17.86,21.59-20.2c11.31-2.21,22.43-5.48,32.75-11.1
		c20.17-11.01,33.4-37.44,29.93-59.87c-1.81-11.75-4.99-23.14-8.4-34.45c-2.19-7.37-1.07-13.16,4.76-18.47
		c6.61-6.02,12.85-12.47,19-18.95C833.9,425.96,834.95,392.03,815.49,367.85z M769.79,414.61c-6.65,6.74-13.37,13.41-20.03,20.15
		c-15.88,16.11-21.35,35.08-15.5,57.11c2.63,9.9,5.37,19.75,7.96,29.67c2.32,8.84,0.95,11.22-7.79,13.67
		c-10.61,2.97-21.35,5.58-31.86,8.89c-19.19,6.07-31.74,19.02-37.55,38.24c-3.26,10.8-5.94,21.78-9.01,32.64
		c-2.32,8.26-4.76,9.58-13.23,7.37c-9.65-2.53-19.25-5.22-28.91-7.73c-21.71-5.64-40.52-0.29-56.46,15.29
		c-7.52,7.35-15.02,14.76-22.28,22.37c-5.03,5.26-9.56,5.56-14.7,0.17c-6.72-7.05-13.75-13.79-20.62-20.68
		c-16.49-16.53-36.07-21.69-58.59-15.86c-10.17,2.63-20.28,5.43-30.41,8.26c-6.25,1.73-10.09-0.27-11.73-6.76
		c-2.67-10.42-5.43-20.83-8.44-31.17c-6.17-21.19-20.13-34.56-41.32-40.46c-10.13-2.8-20.26-5.58-30.45-8.09
		c-7.05-1.75-9.5-5.52-7.41-12.66c3.01-10.34,5.83-20.74,8.26-31.21c4.74-20.47-0.02-38.58-14.59-53.83
		c-7.81-8.19-15.88-16.11-23.99-24.03c-4.72-4.63-4.72-8.87,0.02-13.48c7.54-7.35,15.04-14.74,22.3-22.34
		c15.16-15.86,20.45-34.47,14.93-55.89c-2.7-10.42-5.43-20.83-8.36-31.19c-1.96-6.97,0.08-11.01,7.37-12.72
		c9.96-2.36,19.86-5.01,29.69-7.86c20.76-6.02,34.56-19.29,40.62-40.2c3.14-10.82,6.09-21.73,8.91-32.66
		c1.64-6.36,5.1-8.68,11.58-6.8c9.83,2.84,19.75,5.39,29.67,7.98c21.94,5.75,41.07,0.55,57.28-15.23
		c7.54-7.33,15.08-14.7,22.28-22.37c5.08-5.37,9.48-5.58,14.59-0.15c6.7,7.08,13.73,13.81,20.57,20.72
		c16.45,16.66,36.12,21.57,58.59,15.9c9.67-2.44,19.25-5.24,28.89-7.77c9.27-2.42,11.37-1.14,13.92,8.3
		c2.61,9.62,5.03,19.31,7.79,28.89c6.02,20.89,19.61,34.31,40.46,40.31c10.87,3.12,21.75,6.04,32.68,8.91
		c4.38,1.14,6.95,3.45,6.99,8.49c-2.61,9.86-5.16,20.05-8.02,30.14c-6.8,23.99-1.45,44.6,16.62,61.89
		c6.47,6.19,12.7,12.61,19.02,18.95C776.8,405.09,776.85,407.49,769.79,414.61z"/>
	
		<linearGradient id="SVGID_00000084497233178431088440000016941780127467266442_" gradientUnits="userSpaceOnUse" x1="621.7305" y1="71.3701" x2="394.3587" y2="872.4592">
		<stop  offset="0" style="stop-color:#E64EBD"/>
		<stop  offset="1" style="stop-color:#C851E5"/>
	</linearGradient>
	<path style="fill:url(#SVGID_00000084497233178431088440000016941780127467266442_);" d="M527.27,236.15
		c-94.16-0.72-172.18,75.86-172.79,169.59c-0.63,95.84,75.35,172.88,171.15,173.51c94.22,0.61,171.89-75.92,172.43-169.87
		C698.61,314.22,622.36,236.86,527.27,236.15z M621.85,376.4c-1.83,3.87-4.76,6.87-7.94,9.67c-33.97,29.82-67.9,59.68-101.93,89.44
		c-13.35,11.69-27.84,10.7-39.38-2.57c-15.86-18.24-31.69-36.52-47.38-54.9c-7.14-8.4-8.55-17.94-3.6-27.9
		c4.44-9.01,12-13.6,22.09-13.84c8.23-0.27,14.78,3.1,20.07,9.18c9.12,10.51,18.55,20.81,27.21,31.69c3.83,4.8,6.02,4.51,10.32,0.67
		c26.68-23.78,53.55-47.34,80.51-70.82c9.88-8.61,22.87-9.12,32.58-1.77C623.91,352.46,627.05,365.5,621.85,376.4z"/>
</g>
</svg>
