<svg id="Capa_5" data-name="Capa 5" xmlns="http://www.w3.org/2000/svg" viewBox="0 0 15 14.04"><defs><style>.cls-1{fill:#1d1d1b;}</style></defs><path class="cls-1" d="M3.71,15H1.29a.8.8,0,0,1-.79-.79V11.8A.8.8,0,0,1,1.29,11H3.71a.8.8,0,0,1,.8.79v2.43A.8.8,0,0,1,3.71,15ZM1.29,11.41a.4.4,0,0,0-.39.39v2.43a.4.4,0,0,0,.39.39H3.71a.39.39,0,0,0,.39-.39V11.8a.39.39,0,0,0-.39-.39Z" transform="translate(-0.5 -0.98)"/><path class="cls-1" d="M2.5,10a2,2,0,0,1,0-4h2V8A2,2,0,0,1,2.5,10Zm0-3.6A1.6,1.6,0,1,0,4.1,8V6.4Z" transform="translate(-0.5 -0.98)"/><path class="cls-1" d="M2.5,5a2,2,0,1,1,2-2A2,2,0,0,1,2.5,5Zm0-3.61A1.61,1.61,0,1,0,4.1,3,1.61,1.61,0,0,0,2.5,1.38Z" transform="translate(-0.5 -0.98)"/><path class="cls-1" d="M14.86,3.63H5.91a.65.65,0,0,1,0-1.29h9a.65.65,0,0,1,0,1.29ZM5.91,2.74a.25.25,0,0,0,0,.49h9a.25.25,0,0,0,0-.49Z" transform="translate(-0.5 -0.98)"/><path class="cls-1" d="M14.86,8.64H5.91a.64.64,0,0,1,0-1.28h9a.64.64,0,1,1,0,1.28ZM5.91,7.76a.24.24,0,0,0,0,.48h9a.24.24,0,0,0,0-.48Z" transform="translate(-0.5 -0.98)"/><path class="cls-1" d="M14.86,13.66H5.91a.65.65,0,0,1,0-1.29h9a.65.65,0,0,1,0,1.29Zm-8.95-.89a.25.25,0,0,0,0,.49h9a.25.25,0,0,0,0-.49Z" transform="translate(-0.5 -0.98)"/></svg>