<svg id="Capa_6" data-name="Capa 6" xmlns="http://www.w3.org/2000/svg" viewBox="0 0 15.85 15"><defs><style>.cls-1{fill:#1d1d1b;}</style></defs><path class="cls-1" d="M8,15.5l-.09-.06C4.74,13.16,1.08,9.17.25,5.93A4.31,4.31,0,0,1,.79,2.26,4.32,4.32,0,0,1,3.64.52,4.3,4.3,0,0,1,7.23,1.73,4.26,4.26,0,0,1,8,2.86a4.19,4.19,0,0,1,7.11-.43,5.19,5.19,0,0,1,.6,4.25c-.36,1.6-1.76,3.56-4.16,5.83A37.51,37.51,0,0,1,8.1,15.43ZM4.14.81a3.77,3.77,0,0,0-.47,0A4,4,0,0,0,1,2.44,4,4,0,0,0,.55,5.85c.8,3.14,4.34,7,7.46,9.27.79-.6,6.65-5.06,7.42-8.5a4.85,4.85,0,0,0-.55-4,3.88,3.88,0,0,0-2.09-1.48A4,4,0,0,0,8.15,3.29L8,3.62l-.12-.36A3.77,3.77,0,0,0,7,1.94,3.86,3.86,0,0,0,4.14.81Z" transform="translate(-0.07 -0.5)"/></svg>