<svg id="Capa_1" data-name="Capa 1" xmlns="http://www.w3.org/2000/svg" viewBox="0 0 10.82 15"><defs><style>.cls-1{fill:#1d1d1b;}</style></defs><path class="cls-1" d="M12.42,15.5H10.7a1,1,0,0,1-1-1V12.81A1.72,1.72,0,0,0,8,11.1a1.76,1.76,0,0,0-1.22.5,1.74,1.74,0,0,0-.5,1.22v1.69a1,1,0,0,1-.29.7,1,1,0,0,1-.7.29H3.58a1,1,0,0,1-1-1v-7a.93.93,0,0,1,.21-.6l4.61-6A1,1,0,0,1,8.22.5,1,1,0,0,1,9,.92l4.22,6a1,1,0,0,1,.18.57v7A1,1,0,0,1,12.42,15.5ZM8,10.75H8a2.08,2.08,0,0,1,2.06,2.06v1.71a.64.64,0,0,0,.63.63h1.72a.64.64,0,0,0,.63-.64v-7a.64.64,0,0,0-.11-.36l-4.22-6A.63.63,0,0,0,8.21.86a.6.6,0,0,0-.51.24l-4.62,6A.61.61,0,0,0,3,7.52v7a.64.64,0,0,0,.63.64h1.7a.65.65,0,0,0,.64-.64V12.82a2,2,0,0,1,.6-1.47A2.07,2.07,0,0,1,8,10.75Z" transform="translate(-2.59 -0.5)"/><path class="cls-1" d="M3.44,5.89V1.26a.65.65,0,0,1,.69-.6h.7a.65.65,0,0,1,.69.6V3.18ZM4.13,1c-.18,0-.34.11-.34.24V4.84L5.16,3.06V1.26C5.16,1.13,5,1,4.83,1Z" transform="translate(-2.59 -0.5)"/></svg>