<svg id="Capa_3" data-name="Capa 3" xmlns="http://www.w3.org/2000/svg" viewBox="0 0 12.66 15"><defs><style>.cls-1,.cls-2{fill:#1d1d1b;}.cls-2{font-size:5.43px;font-family:ArialNarrow, Arial Narrow;}</style></defs><path class="cls-1" d="M9.65,15.5a.87.87,0,0,1-.59-.24L1.91,8.11a.88.88,0,0,1-.24-.64L1.88,3.6a.83.83,0,0,1,.87-.79l4,.19v.3l-4-.19a.53.53,0,0,0-.56.51L2,7.49a.5.5,0,0,0,.16.4L9.28,15a.52.52,0,0,0,.37.16A.53.53,0,0,0,10,15l3.84-3.84a.53.53,0,0,0,.16-.38.52.52,0,0,0-.16-.37L7.11,3.69l.22-.22,6.76,6.76a.86.86,0,0,1,0,1.19l-3.84,3.84A.87.87,0,0,1,9.65,15.5Z" transform="translate(-1.67 -0.5)"/><path class="cls-1" d="M3.34,5.23A.72.72,0,0,1,2.83,4a.75.75,0,0,1,.51-.21.72.72,0,0,1,.72.72A.68.68,0,0,1,3.85,5,.71.71,0,0,1,3.34,5.23Zm0-1.14a.41.41,0,0,0-.29.13.41.41,0,0,0,0,.59.42.42,0,0,0,.59,0,.41.41,0,0,0,.12-.3.4.4,0,0,0-.12-.29A.42.42,0,0,0,3.34,4.09Z" transform="translate(-1.67 -0.5)"/><text class="cls-2" transform="matrix(0.97, -0.23, 0.23, 0.97, 4.59, 10.9)">%</text><path class="cls-1" d="M3.14,4.45a.61.61,0,0,1-.36-.15L3,4.07c.06,0,.13.09.2.07s.19-.16.23-.51a3.9,3.9,0,0,0-.1-1.28,3.74,3.74,0,0,0-.48-1.19C2.62.87,2.46.79,2.38.8s-.19.17-.23.52a3.67,3.67,0,0,0,.1,1.28c0,.15.08.31.13.46l-.28.09C2.05,3,2,2.83,2,2.67a4.06,4.06,0,0,1-.11-1.39c.07-.56.29-.73.46-.77s.45,0,.76.48a4.14,4.14,0,0,1,.52,1.29A4,4,0,0,1,3.7,3.66c-.07.57-.29.73-.46.77Z" transform="translate(-1.67 -0.5)"/></svg>