<svg id="Capa_7" data-name="Capa 7" xmlns="http://www.w3.org/2000/svg" viewBox="0 0 9.8 15"><defs><style>.cls-1{fill:#1d1d1b;}</style></defs><path class="cls-1" d="M8,6.62a3.06,3.06,0,1,1,3.06-3.06A3.06,3.06,0,0,1,8,6.62ZM8,.89a2.67,2.67,0,1,0,2.67,2.67A2.68,2.68,0,0,0,8,.89Z" transform="translate(-3.1 -0.5)"/><path class="cls-1" d="M11.32,15.5H4.42v-.39h6.9A1.16,1.16,0,0,0,12.51,14V11.72A4.44,4.44,0,0,0,8,7.36a4.44,4.44,0,0,0-4.51,4.36v3.59H3.1V11.72A4.83,4.83,0,0,1,8,7a4.83,4.83,0,0,1,4.9,4.75V14A1.56,1.56,0,0,1,11.32,15.5Z" transform="translate(-3.1 -0.5)"/></svg>