<svg id="Capa_2" data-name="Capa 2" xmlns="http://www.w3.org/2000/svg" viewBox="0 0 15 13.41"><defs><style>.cls-1{fill:#1d1d1b;}</style></defs><path class="cls-1" d="M13.51,10.76H3.63a.6.6,0,0,1-.6-.58c0-.61,0-1.37,0-1.79A9.53,9.53,0,0,0,.5,1.56l.25-.27A10,10,0,0,1,3.4,8.41c0,.4,0,1.15,0,1.76a.23.23,0,0,0,.23.23h9.88a.24.24,0,0,0,.23-.24,12.8,12.8,0,0,1,1.37-6.38.22.22,0,0,0,0-.22.21.21,0,0,0-.19-.11H3V3.09h12a.56.56,0,0,1,.5.28.57.57,0,0,1,0,.58,12.49,12.49,0,0,0-1.33,6.19.58.58,0,0,1-.59.62Z" transform="translate(-0.5 -1.29)"/><rect class="cls-1" x="3.2" y="5.36" width="6.06" height="0.37"/><path class="cls-1" d="M4.44,14.71A1.41,1.41,0,1,1,5.85,13.3,1.41,1.41,0,0,1,4.44,14.71Zm0-2.45a1,1,0,1,0,1,1A1,1,0,0,0,4.44,12.26Z" transform="translate(-0.5 -1.29)"/><path class="cls-1" d="M12,14.71A1.41,1.41,0,1,1,13.4,13.3,1.41,1.41,0,0,1,12,14.71Zm0-2.45a1,1,0,1,0,1,1A1,1,0,0,0,12,12.26Z" transform="translate(-0.5 -1.29)"/></svg>