<svg id="Capa_4" data-name="Capa 4" xmlns="http://www.w3.org/2000/svg" viewBox="0 0 13.5 15"><defs><style>.cls-1{fill:#1d1d1b;}</style></defs><path class="cls-1" d="M11.35,15.5H2.19a.88.88,0,0,1-.88-.88V1.38A.88.88,0,0,1,2.19.5h9.16a.87.87,0,0,1,.88.88V6h-.32V1.38a.57.57,0,0,0-.56-.57H2.19a.57.57,0,0,0-.56.57V14.62a.57.57,0,0,0,.56.57h9.16a.57.57,0,0,0,.56-.57V10.36h.32v4.26A.87.87,0,0,1,11.35,15.5Z" transform="translate(-1.31 -0.5)"/><path class="cls-1" d="M11.56,9.25h0a.41.41,0,0,1-.36-.2l-.85-1.38.27-.17.85,1.39a.14.14,0,0,0,.09,0,.11.11,0,0,0,.1,0l2.91-4.26.26.18L11.91,9.06A.42.42,0,0,1,11.56,9.25Z" transform="translate(-1.31 -0.5)"/><path class="cls-1" d="M3.66,9a1.06,1.06,0,0,1,0-2.11H4.72v1A1.05,1.05,0,0,1,3.66,9Zm0-1.8a.75.75,0,0,0,0,1.49.75.75,0,0,0,.75-.75V7.17Z" transform="translate(-1.31 -0.5)"/><path class="cls-1" d="M3.66,11.57a1.06,1.06,0,0,1,0-2.12H4.72v1.06A1.06,1.06,0,0,1,3.66,11.57Zm0-1.8a.74.74,0,1,0,0,1.48.75.75,0,0,0,.75-.74V9.77Z" transform="translate(-1.31 -0.5)"/><path class="cls-1" d="M3.66,14.16a1.06,1.06,0,0,1,0-2.11H4.72v1.06A1.05,1.05,0,0,1,3.66,14.16Zm0-1.8a.75.75,0,1,0,.75.75v-.75Z" transform="translate(-1.31 -0.5)"/><rect class="cls-1" x="4.24" y="7.26" width="4.23" height="0.31"/><rect class="cls-1" x="4.24" y="9.85" width="4.23" height="0.31"/><rect class="cls-1" x="4.24" y="12.45" width="4.23" height="0.31"/></svg>